<?xml version="1.0" encoding="UTF-8"?>
<svg width="801px" height="832px" viewBox="0 0 801 832" version="1.1" xmlns="http://www.w3.org/2000/svg" xmlns:xlink="http://www.w3.org/1999/xlink">
    <!-- Generator: Sketch 55.2 (78181) - https://sketchapp.com -->
    <title>abstract-poster</title>
    <desc>Created with Sketch.</desc>
    <g id="Page-1" stroke="none" stroke-width="1" fill="none" fill-rule="evenodd">
        <g id="abstract-poster" transform="translate(0.000000, -10.000000)" fill-rule="nonzero">
            <path d="M801,311 C749.847427,339.411572 707.575508,372.169625 697.629175,401.274161 C676.315602,448.049309 681.643995,464.680473 621.965993,517.692308 C544.171454,577.980276 531.383311,636.189349 538.84306,677.767259 C543.816228,705.485864 566.905931,760.230112 608.112171,842 L801,842 L801,311 Z" id="Path-7" fill="#505C8B"></path>
            <path d="M469,842 C450.210527,833.937753 420.421053,795.737455 413.710526,757.441783 C403.644737,699.998275 302.986842,579.064574 187.230263,533.714436 C110.059211,503.48101 47.649123,497.909532 0,517 L0,842 L457,842 L469,842 Z" id="Path-6" fill="#F1E9F2"></path>
            <path d="M10.3732469,227.241194 C33.834,229.90381 64.26261,257.668418 87.130666,244.451247 C98.006554,238.162718 105.106353,226.557295 110.869966,214.964383 C116.631485,203.369386 121.672552,191.08215 130.177651,181.553443 C132.064648,179.445451 134.115003,177.475073 136.203056,175.546396 C142.264065,169.945935 148.655979,164.670743 152.331539,157.206242 C157.774719,146.155444 156.05108,132.863211 154.189215,120.56555 C152.197501,107.406761 149.843468,93.4306291 141.302765,83.6204398 C136.027132,77.5612666 128.891729,73.7289333 121.827533,70.2510597 C90.820887,54.9884485 47.135129,33.2267173 12.2016023,40.415991 C8.0192131,41.2750341 3.9582953,42.5490034 0,44.1419863 L0,226.976392 C3.4682206,226.799162 6.9301583,226.849203 10.3732469,227.241194" id="Fill-2605" fill="#505C8B"></path>
            <path d="M593,10 C507.656,87.7855751 450.312,147.407407 448.968,148.748538 C446.952,150.760234 429.816,148.748538 409.656,167.859649 C408.984,167.189084 407.976,166.518519 406.632,165.847953 L402.6,165.847953 L364.296,192 C375.048,180.60039 379.08,175.235867 376.392,175.906433 C372.36,176.912281 360.264,179.929825 362.28,171.883041 C356.232,175.906433 349.512,179.259259 342.12,181.94152 L340.104,176.912281 L348.168,172.888889 L413.688,115.555556 L406.632,118.573099 L402.6,115.555556 C400.584,115.555556 398.232,116.561404 395.544,118.573099 C391.512,121.590643 361.272,141.707602 358.248,141.707602 C356.232,141.707602 354.552,141.707602 353.208,141.707602 C337.08,147.74269 329.016,150.760234 329.016,150.760234 C329.016,150.760234 328.344,149.754386 327,147.74269 C392.184,105.497076 430.824,73.6452242 442.92,52.1871345 C442.92,49.1695906 442.92,45.1461988 445.944,42.128655 C447.96,40.1169591 455.248,22.7407407 466,10 L576,10 L593,10 Z" id="Path-2" fill="#F1E9F2"></path>
            <path d="M674.390567,96 C652.825058,98.835946 635.799655,104.507837 623.314361,113.015673 C604.586418,125.777428 504.136544,183.630718 454.762877,229.573036 C405.389211,275.515354 325.36982,338.473346 287.913935,373.355476 C250.45805,408.237606 180.6539,460.986193 187.464061,488.211271 C194.274222,515.436348 237.688998,502.674593 249.60678,500.122242 C261.524561,497.569891 293.021555,494.166756 301.534257,526.496536 C310.046958,558.826315 312.600769,563.080234 349.205383,550.318479 C385.809998,537.556723 433.481124,487.360487 441.993826,474.598733 C450.506527,461.836977 454.762877,453.329141 454.762877,409.08839 C468.3832,381.863313 504.987814,362.295288 510.946705,358.892153 C516.905596,355.489019 555.212751,315.502186 570.535614,266.156733 C585.858475,216.811281 593.519906,200.646391 638.637222,157.256424 C668.715433,128.329779 680.633215,107.910971 674.390567,96 Z" id="Path-5" fill="#FFFFFF" transform="translate(431.500000, 326.500000) rotate(61.000000) translate(-431.500000, -326.500000) "></path>
        </g>
    </g>
</svg>