<?xml version="1.0" encoding="UTF-8"?>
<svg width="776px" height="791px" viewBox="0 0 776 791" version="1.1" xmlns="http://www.w3.org/2000/svg" xmlns:xlink="http://www.w3.org/1999/xlink">
    <!-- Generator: Sketch 55.2 (78181) - https://sketchapp.com -->
    <title>Group 3</title>
    <desc>Created with Sketch.</desc>
    <g id="Page-1" stroke="none" stroke-width="1" fill="none" fill-rule="evenodd">
        <g id="Subpage-Copy-4" transform="translate(-664.000000, 0.000000)">
            <g id="Group-3" transform="translate(590.000000, -20.000000)">
                <path d="M849.943584,305 C801.697407,332.602893 772.883718,360.542406 763.502517,388.81854 C743.399943,434.262327 748.425586,450.420118 692.13838,501.923077 C618.763985,560.495069 606.702441,617.047337 613.738341,657.441815 C618.428942,684.371466 640.20673,737.557528 679.071707,817 L861,815.990138 L849.943584,305 Z" id="Path-7" fill="#505C8B" fill-rule="nonzero"></path>
                <path d="M526.960526,816.978662 C508.171053,808.916415 495.421053,785.737455 488.710526,747.441783 C478.644737,689.998275 377.986842,569.064574 262.230263,523.714436 C185.059211,493.48101 122.649123,487.909532 75,507 L74,867 L533,840.157621 L526.960526,816.978662 Z" id="Path-6" fill="#F1E9F2" fill-rule="nonzero"></path>
                <path d="M567,14.1049845 C481.150198,96.7198938 416.762846,150.453168 373.837945,175.304807 C309.450593,212.582267 307.438488,215.604763 273.232708,209.55977 C229.972456,195.454785 75,55.4124391 75,36.2699602 C75,23.5083075 75.0134635,11.4183208 75.0403904,0 L567,14.1049845 Z" id="Path-3" fill="#FBC0BA" fill-rule="nonzero"></path>
                <path d="M85.3732469,217.241194 C108.834,219.90381 139.26261,247.668418 162.130666,234.451247 C173.006554,228.162718 180.106353,216.557295 185.869966,204.964383 C191.631485,193.369386 196.672552,181.08215 205.177651,171.553443 C207.064648,169.445451 209.115003,167.475073 211.203056,165.546396 C217.264065,159.945935 223.655979,154.670743 227.331539,147.206242 C232.774719,136.155444 231.05108,122.863211 229.189215,110.56555 C227.197501,97.4067606 224.843468,83.4306291 216.302765,73.6204398 C211.027132,67.5612666 203.891729,63.7289333 196.827533,60.2510597 C165.820887,44.9884485 122.135129,23.2267173 87.2016023,30.415991 C83.0192131,31.2750341 78.9582953,32.5490034 75,34.1419863 L75,216.976392 C78.4682206,216.799162 81.9301583,216.849203 85.3732469,217.241194" id="Fill-2605" fill="#505C8B"></path>
                <path d="M654,20.0584795 C568.656,97.8440546 525.312,137.407407 523.968,138.748538 C521.952,140.760234 504.816,138.748538 484.656,157.859649 C483.984,157.189084 482.976,156.518519 481.632,155.847953 L477.6,155.847953 L439.296,182 C450.048,170.60039 454.08,165.235867 451.392,165.906433 C447.36,166.912281 435.264,169.929825 437.28,161.883041 C431.232,165.906433 424.512,169.259259 417.12,171.94152 L415.104,166.912281 L423.168,162.888889 L488.688,105.555556 L481.632,108.573099 L477.6,105.555556 C475.584,105.555556 473.232,106.561404 470.544,108.573099 C466.512,111.590643 436.272,131.707602 433.248,131.707602 C431.232,131.707602 429.552,131.707602 428.208,131.707602 C412.08,137.74269 404.016,140.760234 404.016,140.760234 C404.016,140.760234 403.344,139.754386 402,137.74269 C467.184,95.497076 505.824,63.6452242 517.92,42.1871345 C517.92,39.1695906 517.92,35.1461988 520.944,32.128655 C522.96,30.1169591 529.344,22.7407407 540.096,10 L651.984,13.0175439 L654,20.0584795 Z" id="Path-2" fill="#F1E9F2" fill-rule="nonzero"></path>
                <path d="" id="Path-4" stroke="#979797" fill-rule="nonzero"></path>
                <path d="M745.097644,164 C719.607124,167.352691 699.483028,174.058072 684.725359,184.116143 C662.588854,199.20325 543.856692,267.598137 485.496816,321.911724 C427.13694,376.22531 332.553693,450.65504 288.280684,491.893133 C244.007674,533.131226 161.498884,595.49127 169.548522,627.677099 C177.59816,659.862928 228.914603,644.775821 243.00147,641.758399 C257.088336,638.740978 294.317912,634.717749 304.37996,672.938421 C314.442007,711.159093 317.460622,716.188129 360.727426,701.101022 C403.994231,686.013914 460.341697,626.671292 470.403745,611.584185 C480.465793,596.497077 485.496816,586.439006 485.496816,534.137034 C501.596093,501.951205 544.862897,478.81764 551.90633,474.794411 C558.949764,470.771183 604.228978,423.498246 622.340664,365.161431 C640.452349,306.824616 649.508192,287.71428 702.837044,236.418115 C738.389612,202.220672 752.476479,178.0813 745.097644,164 Z" id="Path-5" fill="#FFFFFF" fill-rule="nonzero"></path>
            </g>
        </g>
    </g>
</svg>