<?xml version="1.0" encoding="UTF-8"?>
<svg width="801px" height="832px" viewBox="0 0 801 832" version="1.1" xmlns="http://www.w3.org/2000/svg" xmlns:xlink="http://www.w3.org/1999/xlink">
    <!-- Generator: Sketch 55.2 (78181) - https://sketchapp.com -->
    <title>home-back</title>
    <desc>Created with Sketch.</desc>
    <g id="Page-1" stroke="none" stroke-width="1" fill="none" fill-rule="evenodd">
        <g id="home-back" fill-rule="nonzero">
            <g id="Group-3">
                <path d="M801,301 C749.847427,329.411572 707.575508,362.169625 697.629175,391.274161 C676.315602,438.049309 681.643995,454.680473 621.965993,507.692308 C544.171454,567.980276 531.383311,626.189349 538.84306,667.767259 C543.816228,695.485864 566.905931,750.230112 608.112171,832 L801,832 L801,301 Z" id="Path-7" fill="#505C8B"></path>
                <path d="M451.960526,816.978662 C433.171053,808.916415 420.421053,785.737455 413.710526,747.441783 C403.644737,689.998275 302.986842,569.064574 187.230263,523.714436 C110.059211,493.48101 47.649123,487.909532 0,507 L0,832 L457,832 L451.960526,816.978662 Z" id="Path-6" fill="#F1E9F2"></path>
                <path d="M493,0 C407.150198,82.6149093 341.762846,150.453168 298.837945,175.304807 C234.450593,212.582267 232.438488,215.604763 198.232708,209.55977 C154.972456,195.454785 0,55.4124391 0,36.2699602 C0,23.5083075 0.0134635,11.4183208 0.0403904,0 L493,0 Z" id="Path-3" fill="#FBC0BA"></path>
                <path d="M10.3732469,217.241194 C33.834,219.90381 64.26261,247.668418 87.130666,234.451247 C98.006554,228.162718 105.106353,216.557295 110.869966,204.964383 C116.631485,193.369386 121.672552,181.08215 130.177651,171.553443 C132.064648,169.445451 134.115003,167.475073 136.203056,165.546396 C142.264065,159.945935 148.655979,154.670743 152.331539,147.206242 C157.774719,136.155444 156.05108,122.863211 154.189215,110.56555 C152.197501,97.4067606 149.843468,83.4306291 141.302765,73.6204398 C136.027132,67.5612666 128.891729,63.7289333 121.827533,60.2510597 C90.820887,44.9884485 47.135129,23.2267173 12.2016023,30.415991 C8.0192131,31.2750341 3.9582953,32.5490034 0,34.1419863 L0,216.976392 C3.4682206,216.799162 6.9301583,216.849203 10.3732469,217.241194" id="Fill-2605" fill="#505C8B"></path>
                <path d="M593,0 C507.656,77.7855751 450.312,137.407407 448.968,138.748538 C446.952,140.760234 429.816,138.748538 409.656,157.859649 C408.984,157.189084 407.976,156.518519 406.632,155.847953 L402.6,155.847953 L364.296,182 C375.048,170.60039 379.08,165.235867 376.392,165.906433 C372.36,166.912281 360.264,169.929825 362.28,161.883041 C356.232,165.906433 349.512,169.259259 342.12,171.94152 L340.104,166.912281 L348.168,162.888889 L413.688,105.555556 L406.632,108.573099 L402.6,105.555556 C400.584,105.555556 398.232,106.561404 395.544,108.573099 C391.512,111.590643 361.272,131.707602 358.248,131.707602 C356.232,131.707602 354.552,131.707602 353.208,131.707602 C337.08,137.74269 329.016,140.760234 329.016,140.760234 C329.016,140.760234 328.344,139.754386 327,137.74269 C392.184,95.497076 430.824,63.6452242 442.92,42.1871345 C442.92,39.1695906 442.92,35.1461988 445.944,32.128655 C447.96,30.1169591 455.248,12.7407407 466,0 L576,0 L593,0 Z" id="Path-2" fill="#F1E9F2"></path>
                <path d="M670.097644,164 C644.607124,167.352691 624.483028,174.058072 609.725359,184.116143 C587.588854,199.20325 468.856692,267.598137 410.496816,321.911724 C352.13694,376.22531 257.553693,450.65504 213.280684,491.893133 C169.007674,533.131226 86.498884,595.49127 94.548522,627.677099 C102.59816,659.862928 153.914603,644.775821 168.00147,641.758399 C182.088336,638.740978 219.317912,634.717749 229.37996,672.938421 C239.442007,711.159093 242.460622,716.188129 285.727426,701.101022 C328.994231,686.013914 385.341697,626.671292 395.403745,611.584185 C405.465793,596.497077 410.496816,586.439006 410.496816,534.137034 C426.596093,501.951205 469.862897,478.81764 476.90633,474.794411 C483.949764,470.771183 529.228978,423.498246 547.340664,365.161431 C565.452349,306.824616 574.508192,287.71428 627.837044,236.418115 C663.389612,202.220672 677.476479,178.0813 670.097644,164 Z" id="Path-5" fill="#FFFFFF"></path>
            </g>
        </g>
    </g>
</svg>